#!OML:ASF G:\JayActor3\Patient Classification 1\Patient 1\Session 2\male.ASF
:FULLY-SPECIFIED
:DEGREES
2939
root 36.519 16.5289 -7.66903 -359.032 -70.3058 -3.09644
lowerback 5.47423 -0.197879 -2.54158
upperback 1.23403 -0.467882 -1.59846
thorax -1.79257 -0.236376 -0.184109
lowerneck -9.90992 -8.34721 -11.4667
upperneck -1.46078 -10.3629 14.1686
head 2.55689 -4.87193 5.53848
rclavicle 6.44559e-014 -3.18055e-015
rhumerus -49.2598 9.23498 -82.0586
rradius 50.8042
rwrist -5.9402
rhand -24.1599 5.88329
rfingers 7.12502
rthumb 2.32294 -24.0838
lclavicle 6.44559e-014 -3.18055e-015
lhumerus -30.3716 -36.341 90.6345
lradius 77.9119
lwrist 18.9275
lhand -10.7892 17.7889
lfingers 7.12502
lthumb 15.2235 47.2088
rfemur -39.8048 -9.17416 19.8951
rtibia 56.2077
rfoot -13.9518 -6.87992
rtoes 7.15204
lfemur 17.7455 2.08234 -18.0986
ltibia 7.32616
lfoot -14.0048 0.944397
ltoes -15.1595
2940
root 36.4219 16.5233 -7.66812 -359.052 -70.5021 -2.83304
lowerback 5.44856 -0.215549 -2.55812
upperback 1.20891 -0.491205 -1.58045
thorax -1.80341 -0.247465 -0.154791
lowerneck -9.97236 -8.30314 -11.4114
upperneck -1.58453 -10.2946 14.1601
head 2.51837 -4.83926 5.53334
rclavicle 5.51627e-015 5.56597e-015
rhumerus -49.0489 9.13714 -81.5248
rradius 50.9896
rwrist -6.04112
rhand -24.0676 5.74383
rfingers 7.12502
rthumb 2.41207 -24.2223
lclavicle 5.51627e-015 5.56597e-015
lhumerus -30.0513 -36.8327 90.8146
lradius 78.3852
lwrist 19.079
lhand -10.3277 17.7871
lfingers 7.12502
lthumb 15.6681 47.1727
rfemur -39.612 -8.26382 19.3605
rtibia 53.7142
rfoot -14.8328 -7.47131
rtoes 6.91402
lfemur 19.1973 2.17118 -18.1043
ltibia 4.89599
lfoot -13.0656 1.2104
ltoes -15.5337
2941
root 36.3245 16.5159 -7.66725 -359.08 -70.6976 -2.564
lowerback 5.44376 -0.234375 -2.55844
upperback 1.18941 -0.515729 -1.55765
thorax -1.82018 -0.259204 -0.129472
lowerneck -10.0443 -8.25681 -11.3507
upperneck -1.70013 -10.2238 14.1495
head 2.48309 -4.80497 5.52643
rclavicle -2.69353e-014 -1.51076e-014
rhumerus -48.8329 9.04832 -81.0076
rradius 51.194
rwrist -6.11645
rhand -23.9674 5.5819
rfingers 7.12502
rthumb 2.5088 -24.3831
lclavicle -2.69353e-014 -1.51076e-014
lhumerus -29.7216 -37.3137 90.9568
lradius 78.8984
lwrist 19.1662
lhand -9.89721 17.8893
lfingers 7.12502
lthumb 16.0826 47.2419
rfemur -39.383 -7.2713 18.7585
rtibia 51.2135
rfoot -15.6033 -8.00468
rtoes 6.69058
lfemur 22.0004 2.24551 -18.0968
ltibia 5.725e-014
lfoot -10.9994 1.58552
ltoes -15.9092
2942
root 36.2267 16.5068 -7.66664 -359.128 -70.8843 -2.28478
lowerback 5.46927 -0.255613 -2.54464
upperback 1.17369 -0.543765 -1.53353
thorax -1.85002 -0.272685 -0.11028
lowerneck -10.1226 -8.20765 -11.2818
upperneck -1.80275 -10.1509 14.141
head 2.4522 -4.76926 5.51862
rclavicle -5.41191e-014 -1.43125e-014
rhumerus -48.619 8.959 -80.513
rradius 51.4019
rwrist -6.13793
rhand -23.8676 5.41298
rfingers 7.12502
rthumb 2.60518 -24.5509
lclavicle -5.41191e-014 -1.43125e-014
lhumerus -29.3882 -37.7842 91.0618
lradius 79.4527
lwrist 19.2031
lhand -9.52023 18.0644
lfingers 7.12502
lthumb 16.4456 47.3873
rfemur -39.1218 -6.20025 18.0886
rtibia 48.7343
rfoot -16.274 -8.48726
rtoes 6.57504
lfemur 22.1452 2.32083 -18.0978
ltibia 2.54444e-014
lfoot -11.1279 1.66981
ltoes -16.3369
2943
root 36.1287 16.496 -7.66646 -359.209 -71.0579 -1.97919
lowerback 5.52289 -0.281223 -2.52625
upperback 1.16192 -0.578363 -1.50832
thorax -1.89143 -0.289414 -0.0918862
lowerneck -10.1929 -8.158 -11.2043
upperneck -1.91032 -10.079 14.1336
head 2.41842 -4.73451 5.51003
rclavicle 2.98177e-014 1.59028e-015
rhumerus -48.4063 8.87092 -80.0434
rradius 51.6088
rwrist -6.11204
rhand -23.8004 5.23913
rfingers 7.12502
rthumb 2.67013 -24.7239
lclavicle 2.98177e-014 1.59028e-015
lhumerus -29.047 -38.2321 91.1291
lradius 80.0434
lwrist 19.2041
lhand -9.20638 18.247
lfingers 7.12502
lthumb 16.7478 47.5446
rfemur -38.843 -5.05851 17.3506
rtibia 46.3106
rfoot -16.8664 -8.9375
rtoes 6.59232
lfemur 22.2983 2.38022 -18.0989
ltibia -6.04305e-014
lfoot -11.2303 1.71673
ltoes -16.7983
2944
root 36.0299 16.4838 -7.66683 -359.339 -71.2139 -1.63182
lowerback 5.60213 -0.311711 -2.50948
upperback 1.15545 -0.620449 -1.48313
thorax -1.94153 -0.309871 -0.0718388
lowerneck -10.2567 -8.10839 -11.1239
upperneck -2.021 -10.0081 14.127
head 2.38276 -4.70062 5.50138
rclavicle 9.0944e-015 1.27222e-014
rhumerus -48.1937 8.78311 -79.599
rradius 51.8089
rwrist -6.05364
rhand -23.8322 5.09572
rfingers 7.12502
rthumb 2.63944 -24.8677
lclavicle 9.0944e-015 1.27222e-014
lhumerus -28.7004 -38.6519 91.1621
lradius 80.6679
lwrist 19.1849
lhand -8.93287 18.4455
lfingers 7.12502
lthumb 17.0111 47.7206
rfemur -38.5579 -3.85734 16.547
rtibia 43.9814
rfoot -17.4085 -9.37598
rtoes 6.77616
lfemur 22.4603 2.41842 -18.1036
ltibia -8.5875e-014
lfoot -11.3049 1.72375
ltoes -17.3122
2945
root 35.9301 16.4703 -7.66802 -359.528 -71.3537 -1.2272
lowerback 5.69862 -0.347464 -2.50344
upperback 1.15404 -0.670766 -1.45822
thorax -1.99578 -0.334415 -0.0452623
lowerneck -10.3138 -8.05829 -11.0422
upperneck -2.13783 -9.93691 14.1199
head 2.34416 -4.66707 5.49269
rclavicle 2.9768e-014 -1.59028e-015
rhumerus -47.972 8.70423 -79.1831
rradius 51.9939
rwrist -5.99813
rhand -23.9586 4.98649
rfingers 7.12502
rthumb 2.51733 -24.9784
lclavicle 2.9768e-014 -1.59028e-015
lhumerus -28.3441 -39.0332 91.156
lradius 81.3195
lwrist 19.1458
lhand -8.73366 18.5004
lfingers 7.12502
lthumb 17.2028 47.7589
rfemur -38.2885 -2.60572 15.6853
rtibia 41.7875
rfoot -17.9284 -9.84561
rtoes 7.02133
lfemur 22.6255 2.43682 -18.1153
ltibia 0
lfoot -11.3515 1.68678
ltoes -17.8789
2946
root 35.8289 16.4558 -7.67015 -359.783 -71.4779 -0.751036
lowerback 5.80227 -0.387542 -2.51247
upperback 1.15678 -0.72801 -1.43452
thorax -2.04943 -0.362395 -0.010778
lowerneck -10.3688 -8.00948 -10.9654
upperneck -2.25859 -9.86676 14.1106
head 2.30433 -4.63427 5.48411
rclavicle 9.34288e-015 -7.95139e-016
rhumerus -47.7432 8.62768 -78.793
rradius 52.1657
rwrist -5.95578
rhand -24.1717 4.93316
rfingers 7.12502
rthumb 2.31153 -25.0341
lclavicle 9.34288e-015 -7.95139e-016
lhumerus -27.9801 -39.3759 91.1154
lradius 81.995
lwrist 19.1011
lhand -8.54338 18.5455
lfingers 7.12502
lthumb 17.3859 47.7879
rfemur -38.0569 -1.32703 14.7773
rtibia 39.7694
rfoot -18.4448 -10.3338
rtoes 7.45524
lfemur 22.7869 2.43639 -18.1391
ltibia 4.45278e-014
lfoot -11.3692 1.60888
ltoes -18.4916
2947
root 35.726 16.4403 -7.67339 -360.1 -71.5944 -0.204063
lowerback 5.90378 -0.429568 -2.53936
upperback 1.16529 -0.788817 -1.41092
thorax -2.09556 -0.392182 0.033992
lowerneck -10.4266 -7.96312 -10.8942
upperneck -2.38029 -9.79881 14.0965
head 2.26495 -4.6026 5.47467
rclavicle 2.6339e-015 0
rhumerus -47.5056 8.55667 -78.4302
rradius 52.3212
rwrist -5.93318
rhand -24.4578 4.94532
rfingers 7.12502
rthumb 2.03523 -25.0247
lclavicle 2.6339e-015 0
lhumerus -27.6068 -39.677 91.0405
lradius 82.6887
lwrist 19.0422
lhand -8.37719 18.5795
lfingers 7.12502
lthumb 17.5459 47.8077
rfemur -37.8801 -0.0446933 13.8456
rtibia 37.9607
rfoot -18.9748 -10.8455
rtoes 7.9962
lfemur 22.9425 2.42514 -18.1735
ltibia -7.63333e-014
lfoot -11.3625 1.48934
ltoes -19.1086
